<?xml version="1.0" standalone="no"?>
<!DOCTYPE svg PUBLIC "-//W3C//DTD SVG 20010904//EN"
 "http://www.w3.org/TR/2001/REC-SVG-20010904/DTD/svg10.dtd">
<svg version="1.0" xmlns="http://www.w3.org/2000/svg"
 width="86.000000pt" height="86.000000pt" viewBox="0 0 86.000000 86.000000"
 preserveAspectRatio="xMidYMid meet">
<metadata>
Created by potrace 1.11, written by Peter Selinger 2001-2013
</metadata>
<g transform="translate(0.000000,86.000000) scale(0.100000,-0.100000)"
fill="#000000" stroke="none">
<path d="M0 430 l0 -430 430 0 430 0 0 430 0 430 -430 0 -430 0 0 -430z m484
121 c3 -5 -5 -28 -18 -52 -14 -24 -32 -71 -42 -106 -9 -35 -21 -60 -27 -56
-15 9 0 87 32 158 28 62 43 76 55 56z m-129 -21 c4 -6 -6 -10 -23 -10 -28 0
-31 -4 -58 -87 -32 -102 -31 -100 -45 -86 -8 8 -4 32 14 87 l25 75 -26 3 c-14
2 -27 9 -30 16 -5 15 133 17 143 2z m-163 -5 c3 -3 -3 -22 -13 -43 -11 -20
-25 -63 -31 -94 -13 -65 -34 -72 -32 -12 2 77 52 173 76 149z m186 -57 c15
-15 16 -48 1 -48 -5 0 -7 5 -4 10 3 6 2 10 -3 10 -15 0 -23 -43 -9 -52 9 -6 9
-8 0 -8 -6 0 -13 -10 -15 -21 -5 -32 -34 -48 -53 -29 -13 14 -13 18 1 38 8 12
21 22 28 22 8 0 11 10 8 30 -4 28 11 60 27 60 4 0 12 -5 19 -12z m236 -44
l-18 -29 35 33 c54 50 75 41 43 -20 -12 -23 -13 -32 -4 -38 17 -10 -6 -24 -27
-16 -11 4 -13 14 -9 34 6 26 5 26 -27 -10 -19 -21 -37 -38 -41 -38 -13 0 -5
50 14 96 19 43 22 46 36 32 15 -14 14 -18 -2 -44z m-80 33 c16 -11 16 -18 6
-55 -6 -23 -8 -47 -5 -52 3 -6 -1 -10 -9 -10 -9 0 -16 7 -16 17 0 15 -1 15
-18 0 -24 -22 -39 -21 -47 2 -10 33 31 111 60 111 6 0 19 -6 29 -13z m242 -8
c-29 -23 -62 -79 -46 -79 5 0 22 18 36 40 37 56 47 41 19 -31 -25 -63 -38 -85
-64 -106 -18 -15 -57 -17 -66 -3 -3 6 1 7 9 4 10 -4 27 6 46 24 33 34 39 61
13 58 -12 -1 -19 7 -21 25 -4 36 41 89 75 89 l26 0 -27 -21z"/>
<path d="M317 363 c-4 -3 -7 -11 -7 -17 0 -6 5 -5 12 2 6 6 9 14 7 17 -3 3 -9
2 -12 -2z"/>
<path d="M496 419 c-25 -30 -36 -66 -16 -54 11 7 53 85 46 85 -2 0 -16 -14
-30 -31z"/>
</g>
</svg>
